<svg width="370" height="62" viewBox="0 0 370 62" fill="none" xmlns="http://www.w3.org/2000/svg">
<g opacity="0.25">
<rect x="1.5" y="8.3479" width="33.7575" height="49.5108" rx="5.5" stroke="white" stroke-width="3"/>
<rect x="8.15744" y="2.51758" width="32.7575" height="48.5108" rx="5" fill="white" stroke="white" stroke-width="4"/>
<path d="M79.6011 45.2021C72.7688 45.2021 67.3598 43.4927 63.3743 40.0739C59.3888 36.6552 57.396 31.7861 57.396 25.4666C57.396 19.1471 59.3888 14.252 63.3743 10.7815C67.4116 7.31096 72.8464 5.57568 79.6788 5.57568C82.7326 5.57568 85.5794 5.88648 88.2192 6.50807C90.9108 7.07786 93.1364 7.90665 94.8963 8.99443V19.6392C91.7389 17.36 87.5722 16.2204 82.3962 16.2204C79.0835 16.2204 76.4179 16.9974 74.3992 18.5514C72.4323 20.0536 71.4489 22.3586 71.4489 25.4666C71.4489 28.6263 72.4323 30.9573 74.3992 32.4595C76.3661 33.9098 79.0059 34.635 82.3186 34.635C87.3393 34.635 91.6872 33.4436 95.3621 31.0609V41.6279C91.4284 44.0107 86.1747 45.2021 79.6011 45.2021Z" fill="white"/>
<path d="M117.988 45.2021C113.381 45.2021 109.344 44.3733 105.876 42.7157C102.408 41.0063 99.7163 38.6754 97.8011 35.7228C95.9378 32.7185 95.0061 29.2738 95.0061 25.3889C95.0061 21.5039 95.9378 18.0852 97.8011 15.1326C99.7163 12.1283 102.408 9.79732 105.876 8.13974C109.344 6.43037 113.381 5.57568 117.988 5.57568C122.594 5.57568 126.632 6.43037 130.1 8.13974C133.567 9.79732 136.233 12.1283 138.097 15.1326C140.012 18.0852 140.969 21.5039 140.969 25.3889C140.969 29.2738 140.012 32.7185 138.097 35.7228C136.233 38.6754 133.567 41.0063 130.1 42.7157C126.632 44.3733 122.594 45.2021 117.988 45.2021ZM117.988 34.5573C120.731 34.5573 122.905 33.7544 124.509 32.1487C126.166 30.4911 126.994 28.2378 126.994 25.3889C126.994 22.5399 126.166 20.3126 124.509 18.7068C122.905 17.0492 120.731 16.2204 117.988 16.2204C115.244 16.2204 113.045 17.0492 111.388 18.7068C109.784 20.3126 108.981 22.5399 108.981 25.3889C108.981 28.2378 109.784 30.4911 111.388 32.1487C113.045 33.7544 115.244 34.5573 117.988 34.5573Z" fill="white"/>
<path d="M143.267 6.74116H156.466V10.4707C159.934 7.20736 164.334 5.57568 169.665 5.57568C173.547 5.57568 176.989 6.40447 179.991 8.06204C182.993 9.66782 185.323 11.9729 186.979 14.9772C188.635 17.9298 189.464 21.3744 189.464 25.3112C189.464 29.1961 188.635 32.6667 186.979 35.7228C185.323 38.7272 182.993 41.0581 179.991 42.7157C177.041 44.3733 173.599 45.2021 169.665 45.2021C167.181 45.2021 164.8 44.8136 162.522 44.0366C160.297 43.3114 158.433 42.3013 156.932 41.0063V61.0526H143.267V6.74116ZM166.094 34.5573C168.889 34.5573 171.14 33.7285 172.848 32.071C174.557 30.4134 175.411 28.1601 175.411 25.3112C175.411 22.4622 174.557 20.2349 172.848 18.6291C171.14 16.9715 168.889 16.1427 166.094 16.1427C164.023 16.1427 162.16 16.6866 160.504 17.7744C158.847 18.8104 157.657 20.2349 156.932 22.0478V28.6522C157.657 30.4652 158.847 31.9156 160.504 33.0033C162.16 34.0393 164.023 34.5573 166.094 34.5573Z" fill="white"/>
<path d="M198.207 59.4209C196.55 59.4209 194.816 59.2914 193.005 59.0324C191.193 58.8252 189.847 58.5144 188.967 58.1001V47.9215C190.468 48.5431 192.176 48.8539 194.092 48.8539C195.8 48.8539 197.12 48.4654 198.051 47.6884C199.035 46.9632 199.811 45.7977 200.38 44.192L201.312 41.7056L185.163 6.74116H198.828L208.533 30.9832L217.694 6.74116H231.359L215.986 45.7459C214.175 50.4079 211.845 53.8525 208.999 56.0799C206.204 58.3072 202.606 59.4209 198.207 59.4209Z" fill="white"/>
<path d="M244.794 41.0894C241.996 41.0894 239.503 40.5333 237.314 39.4213C235.162 38.3092 233.476 36.7309 232.256 34.6861C231.073 32.6055 230.481 30.1841 230.481 27.4219C230.481 24.6956 231.091 22.2922 232.31 20.2116C233.53 18.131 235.216 16.5167 237.368 15.3688C239.556 14.2209 242.032 13.6469 244.794 13.6469C247.556 13.6469 250.013 14.2209 252.166 15.3688C254.354 16.5167 256.058 18.131 257.278 20.2116C258.497 22.2922 259.107 24.6956 259.107 27.4219C259.107 30.1841 258.497 32.6055 257.278 34.6861C256.094 36.7309 254.408 38.3092 252.219 39.4213C250.067 40.5333 247.592 41.0894 244.794 41.0894ZM244.794 37.807C247.879 37.807 250.336 36.8744 252.166 35.009C254.031 33.1077 254.964 30.5787 254.964 27.4219C254.964 24.2293 254.031 21.7003 252.166 19.8349C250.336 17.9337 247.879 16.9831 244.794 16.9831C241.709 16.9831 239.234 17.9337 237.368 19.8349C235.539 21.7003 234.624 24.2293 234.624 27.4219C234.624 30.5787 235.539 33.1077 237.368 35.009C239.234 36.8744 241.709 37.807 244.794 37.807Z" fill="white"/>
<path d="M263.403 14.454H267.439V18.3283C268.694 16.714 270.219 15.5302 272.012 14.7769C273.842 14.0236 275.779 13.6469 277.824 13.6469C281.232 13.6469 283.761 14.5437 285.411 16.3373C287.097 18.131 287.94 20.5344 287.94 23.5477V40.2822H283.796V23.9244C283.796 21.7003 283.258 19.9963 282.182 18.8125C281.106 17.5929 279.384 16.9831 277.016 16.9831C273.035 16.9831 269.878 18.7767 267.546 22.3639V40.2822H263.403V14.454Z" fill="white"/>
<path d="M293.042 0.517578H297.185V40.2822H293.042V0.517578Z" fill="white"/>
<path d="M305.138 8.85793C304.42 8.85793 303.811 8.60682 303.308 8.10461C302.806 7.60239 302.555 6.99256 302.555 6.27511C302.555 5.55766 302.806 4.94783 303.308 4.44562C303.811 3.9434 304.42 3.69229 305.138 3.69229C305.855 3.69229 306.465 3.9434 306.967 4.44562C307.505 4.94783 307.774 5.55766 307.774 6.27511C307.774 6.99256 307.505 7.60239 306.967 8.10461C306.465 8.60682 305.855 8.85793 305.138 8.85793ZM303.093 14.454H307.236V40.2822H303.093V14.454Z" fill="white"/>
<path d="M313.172 14.454H317.207V18.3283C318.463 16.714 319.988 15.5302 321.781 14.7769C323.611 14.0236 325.548 13.6469 327.592 13.6469C331 13.6469 333.529 14.5437 335.18 16.3373C336.866 18.131 337.709 20.5344 337.709 23.5477V40.2822H333.565V23.9244C333.565 21.7003 333.027 19.9963 331.951 18.8125C330.875 17.5929 329.153 16.9831 326.785 16.9831C322.804 16.9831 319.647 18.7767 317.315 22.3639V40.2822H313.172V14.454Z" fill="white"/>
<path d="M356.693 41.0894C351.994 41.0894 348.317 39.8876 345.663 37.4842C343.044 35.0807 341.735 31.7266 341.735 27.4219C341.735 23.189 342.918 19.8349 345.286 17.3597C347.653 14.8845 351.025 13.6469 355.402 13.6469C358.343 13.6469 360.837 14.2209 362.881 15.3688C364.926 16.4808 366.469 18.0234 367.509 19.9963C368.549 21.9693 369.069 24.2114 369.069 26.7224V28.9824H345.609C345.752 31.9239 346.828 34.1301 348.837 35.6009C350.882 37.0716 353.644 37.807 357.124 37.807C358.81 37.807 360.46 37.6635 362.074 37.3766C363.724 37.0537 365.195 36.6232 366.487 36.0852V39.5827C365.41 40.0132 363.94 40.3719 362.074 40.6589C360.245 40.9459 358.451 41.0894 356.693 41.0894ZM365.195 26.0229C365.123 23.2249 364.262 21.0187 362.612 19.4044C360.962 17.7902 358.541 16.9831 355.348 16.9831C352.227 16.9831 349.842 17.8261 348.192 19.5121C346.541 21.1622 345.68 23.3325 345.609 26.0229H365.195Z" fill="white"/>
</g>
</svg>
