<svg width="244" height="40" viewBox="0 0 244 40" fill="none" xmlns="http://www.w3.org/2000/svg">
<rect x="0.5" y="4.68277" width="23.2885" height="33.6979" rx="6.5" stroke="black"/>
<rect x="5.06866" y="1" width="22.2885" height="32.6979" rx="6" fill="#E7E7E7" stroke="black" stroke-width="2"/>
<path d="M52.5986 29.5263C48.0839 29.5263 44.5098 28.3968 41.8762 26.1378C39.2427 23.8787 37.9259 20.6613 37.9259 16.4856C37.9259 12.3098 39.2427 9.07527 41.8762 6.78202C44.544 4.48876 48.1352 3.34213 52.6499 3.34213C54.6678 3.34213 56.5489 3.5475 58.2932 3.95823C60.0717 4.33474 61.5424 4.88238 62.7052 5.60116V12.635C60.6189 11.1289 57.8657 10.3759 54.4455 10.3759C52.2565 10.3759 50.4951 10.8893 49.1613 11.9162C47.8616 12.9088 47.2117 14.4319 47.2117 16.4856C47.2117 18.5735 47.8616 20.1137 49.1613 21.1063C50.4609 22.0647 52.2052 22.5439 54.3942 22.5439C57.7117 22.5439 60.5847 21.7566 63.0131 20.1822V27.1646C60.4137 28.7391 56.9422 29.5263 52.5986 29.5263Z" fill="black"/>
<path d="M77.9635 29.5263C74.9195 29.5263 72.2517 28.9787 69.9602 27.8834C67.6687 26.7539 65.8902 25.2136 64.6247 23.2626C63.3934 21.2774 62.7778 19.0013 62.7778 16.4342C62.7778 13.8671 63.3934 11.6081 64.6247 9.65714C65.8902 7.67194 67.6687 6.13169 69.9602 5.0364C72.2517 3.90689 74.9195 3.34213 77.9635 3.34213C81.0074 3.34213 83.6752 3.90689 85.9667 5.0364C88.2583 6.13169 90.0196 7.67194 91.2509 9.65714C92.5164 11.6081 93.1491 13.8671 93.1491 16.4342C93.1491 19.0013 92.5164 21.2774 91.2509 23.2626C90.0196 25.2136 88.2583 26.7539 85.9667 27.8834C83.6752 28.9787 81.0074 29.5263 77.9635 29.5263ZM77.9635 22.4925C79.7762 22.4925 81.2126 21.962 82.2729 20.9009C83.3674 19.8057 83.9146 18.3167 83.9146 16.4342C83.9146 14.5517 83.3674 13.0799 82.2729 12.0189C81.2126 10.9236 79.7762 10.3759 77.9635 10.3759C76.1508 10.3759 74.6972 10.9236 73.6027 12.0189C72.5424 13.0799 72.0123 14.5517 72.0123 16.4342C72.0123 18.3167 72.5424 19.8057 73.6027 20.9009C74.6972 21.962 76.1508 22.4925 77.9635 22.4925Z" fill="black"/>
<path d="M94.6678 4.11226H103.389V6.57665C105.681 4.42031 108.588 3.34213 112.111 3.34213C114.676 3.34213 116.95 3.88978 118.934 4.98506C120.918 6.04612 122.457 7.56925 123.551 9.55446C124.646 11.5054 125.193 13.7816 125.193 16.3829C125.193 18.95 124.646 21.2432 123.551 23.2626C122.457 25.2479 120.918 26.7881 118.934 27.8834C116.985 28.9787 114.71 29.5263 112.111 29.5263C110.469 29.5263 108.896 29.2696 107.391 28.7562C105.92 28.277 104.689 27.6096 103.697 26.7539V40H94.6678V4.11226ZM109.751 22.4925C111.598 22.4925 113.086 21.9449 114.214 20.8496C115.343 19.7543 115.907 18.2654 115.907 16.3829C115.907 14.5004 115.343 13.0286 114.214 11.9675C113.086 10.8722 111.598 10.3246 109.751 10.3246C108.383 10.3246 107.151 10.684 106.057 11.4028C104.963 12.0873 104.176 13.0286 103.697 14.2265V18.5906C104.176 19.7885 104.963 20.7469 106.057 21.4657C107.151 22.1502 108.383 22.4925 109.751 22.4925Z" fill="black"/>
<path d="M130.97 38.9218C129.876 38.9218 128.73 38.8362 127.533 38.6651C126.336 38.5282 125.447 38.3228 124.865 38.049V31.3233C125.857 31.734 126.986 31.9394 128.251 31.9394C129.38 31.9394 130.252 31.6827 130.868 31.1692C131.517 30.6901 132.03 29.9199 132.407 28.8589L133.022 27.2159L122.351 4.11226H131.381L137.794 20.1308L143.847 4.11226H152.877L142.719 29.8857C141.522 32.9662 139.982 35.2423 138.101 36.7141C136.254 38.1859 133.877 38.9218 130.97 38.9218Z" fill="black"/>
<path d="M161.754 26.8089C159.905 26.8089 158.258 26.4415 156.812 25.7067C155.39 24.9719 154.276 23.9289 153.47 22.5778C152.687 21.203 152.296 19.603 152.296 17.7778C152.296 15.9763 152.699 14.3881 153.505 13.0133C154.311 11.6385 155.425 10.5719 156.847 9.81333C158.293 9.05481 159.929 8.67556 161.754 8.67556C163.579 8.67556 165.203 9.05481 166.625 9.81333C168.071 10.5719 169.197 11.6385 170.003 13.0133C170.809 14.3881 171.212 15.9763 171.212 17.7778C171.212 19.603 170.809 21.203 170.003 22.5778C169.221 23.9289 168.107 24.9719 166.661 25.7067C165.239 26.4415 163.603 26.8089 161.754 26.8089ZM161.754 24.64C163.793 24.64 165.416 24.0237 166.625 22.7911C167.858 21.5348 168.474 19.8637 168.474 17.7778C168.474 15.6681 167.858 13.997 166.625 12.7644C165.416 11.5081 163.793 10.88 161.754 10.88C159.716 10.88 158.08 11.5081 156.847 12.7644C155.639 13.997 155.034 15.6681 155.034 17.7778C155.034 19.8637 155.639 21.5348 156.847 22.7911C158.08 24.0237 159.716 24.64 161.754 24.64Z" fill="black"/>
<path d="M174.05 9.20889H176.717V11.7689C177.547 10.7022 178.554 9.92 179.739 9.42222C180.948 8.92444 182.228 8.67556 183.579 8.67556C185.831 8.67556 187.502 9.26815 188.593 10.4533C189.707 11.6385 190.264 13.2267 190.264 15.2178V26.2756H187.526V15.4667C187.526 13.997 187.17 12.8711 186.459 12.0889C185.748 11.283 184.61 10.88 183.046 10.88C180.415 10.88 178.329 12.0652 176.788 14.4356V26.2756H174.05V9.20889Z" fill="black"/>
<path d="M193.635 0H196.373V26.2756H193.635V0Z" fill="black"/>
<path d="M201.628 5.51111C201.154 5.51111 200.751 5.34518 200.419 5.01333C200.087 4.68148 199.921 4.27852 199.921 3.80444C199.921 3.33037 200.087 2.92741 200.419 2.59556C200.751 2.2637 201.154 2.09778 201.628 2.09778C202.102 2.09778 202.505 2.2637 202.837 2.59556C203.192 2.92741 203.37 3.33037 203.37 3.80444C203.37 4.27852 203.192 4.68148 202.837 5.01333C202.505 5.34518 202.102 5.51111 201.628 5.51111ZM200.277 9.20889H203.015V26.2756H200.277V9.20889Z" fill="black"/>
<path d="M206.937 9.20889H209.603V11.7689C210.433 10.7022 211.44 9.92 212.625 9.42222C213.834 8.92444 215.114 8.67556 216.465 8.67556C218.717 8.67556 220.388 9.26815 221.479 10.4533C222.593 11.6385 223.15 13.2267 223.15 15.2178V26.2756H220.412V15.4667C220.412 13.997 220.057 12.8711 219.345 12.0889C218.634 11.283 217.497 10.88 215.932 10.88C213.301 10.88 211.215 12.0652 209.674 14.4356V26.2756H206.937V9.20889Z" fill="black"/>
<path d="M235.695 26.8089C232.589 26.8089 230.16 26.0148 228.406 24.4267C226.675 22.8385 225.81 20.6222 225.81 17.7778C225.81 14.9807 226.592 12.7644 228.157 11.1289C229.721 9.49333 231.949 8.67556 234.841 8.67556C236.785 8.67556 238.432 9.05481 239.784 9.81333C241.135 10.5481 242.154 11.5674 242.841 12.8711C243.529 14.1748 243.872 15.6563 243.872 17.3156V18.8089H228.37C228.465 20.7526 229.176 22.2104 230.504 23.1822C231.855 24.1541 233.68 24.64 235.979 24.64C237.093 24.64 238.184 24.5452 239.25 24.3556C240.341 24.1422 241.312 23.8578 242.166 23.5022V25.8133C241.455 26.0978 240.483 26.3348 239.25 26.5244C238.041 26.7141 236.856 26.8089 235.695 26.8089ZM241.312 16.8533C241.265 15.0044 240.696 13.5467 239.606 12.48C238.515 11.4133 236.915 10.88 234.806 10.88C232.744 10.88 231.167 11.437 230.077 12.5511C228.987 13.6415 228.418 15.0756 228.37 16.8533H241.312Z" fill="black"/>
</svg>
